<svg width="506" height="380" viewBox="0 0 506 380" fill="none" xmlns="http://www.w3.org/2000/svg">
<path d="M331.041 322.14C323.389 330.195 316.147 335.39 310.428 339.494C243.183 387.738 163.615 373.675 146.705 370.24C121.734 365.169 73.4652 355.366 38.567 314.331C-14.2297 252.249 -6.00869 154.44 34.9444 89.8749C42.4352 78.0651 82.0052 12.5165 162.429 2.00403C211.101 -4.35825 267.838 8.47353 308.924 42.892C395.169 115.142 389.029 261.097 331.041 322.14Z" fill="url(#paint0_linear_107_426)"/>
<path d="M32.466 73.1563C32.5624 71.4775 34.8508 71.0432 35.5498 72.5727C42.3036 87.3629 61.2281 125.591 84.0235 143.888C121.141 173.678 151.036 226.792 135.292 259.173C135.292 259.174 21.9349 256.094 32.466 73.1563Z" fill="#BDD0FB"/>
<path opacity="0.43" d="M38.9633 94.7511C39.0814 95.2506 39.2185 95.6536 39.3474 96.0933L39.7546 97.3813L40.5961 99.9449C41.1689 101.649 41.7674 103.345 42.366 105.041C43.5753 108.427 44.8267 111.798 46.1094 115.157C48.6868 121.871 51.4448 128.514 54.3019 135.115C57.1508 141.72 60.1843 148.246 63.3549 154.704C66.5309 161.16 69.7993 167.573 73.278 173.875C80.2082 186.491 87.8307 198.741 96.2878 210.404C100.577 216.19 105.021 221.867 109.783 227.273C114.583 232.644 119.614 237.813 124.998 242.593C125.115 242.697 125.294 242.686 125.399 242.568C125.501 242.454 125.492 242.281 125.384 242.176L125.381 242.173C120.204 237.206 115.305 231.97 110.672 226.507C106.024 221.054 101.697 215.336 97.5243 209.514C93.3548 203.688 89.42 197.694 85.6224 191.617C81.8274 185.537 78.2863 179.302 74.7805 173.049C67.8203 160.51 61.5334 147.604 55.6076 134.538C52.6582 127.998 49.8392 121.399 47.1395 114.75C45.7836 111.428 44.4589 108.093 43.1749 104.742L41.2897 99.702L40.3735 97.1736L39.9297 95.9061C39.7912 95.4881 39.6351 95.0416 39.5293 94.6711L39.5116 94.61C39.4682 94.4607 39.3135 94.3738 39.1642 94.4173C39.0149 94.458 38.9294 94.6059 38.9633 94.7511Z" fill="white"/>
<path d="M80.5882 29.6639C81.1352 28.1507 83.3517 28.376 83.5756 29.9707C85.7337 45.3769 92.6585 85.5959 108.571 108.593C134.482 146.036 147.406 202.899 124.134 228.301C124.134 228.299 21.0188 194.554 80.5882 29.6639Z" fill="#91B3FA"/>
<path opacity="0.43" d="M80.6493 51.2384C80.6208 51.7297 80.6371 52.1355 80.6344 52.5739L80.6561 53.8659L80.7281 56.4472C80.7878 58.1667 80.8733 59.8848 80.9602 61.6029C81.1447 65.0379 81.3714 68.4714 81.6307 71.9023C82.1613 78.7626 82.878 85.6081 83.6964 92.4413C84.5054 99.2758 85.507 106.087 86.6526 112.876C87.8035 119.663 89.0509 126.435 90.5208 133.164C93.4335 146.624 97.0832 159.937 101.659 172.94C104.015 179.416 106.541 185.833 109.434 192.091C112.373 198.326 115.577 204.437 119.214 210.287C119.294 210.416 119.465 210.457 119.594 210.376C119.72 210.297 119.761 210.133 119.689 210.005L119.687 210.002C116.298 204.035 113.233 197.897 110.478 191.621C107.704 185.353 105.296 178.928 103.061 172.452C100.827 165.971 98.8545 159.403 97.0303 152.793C95.2088 146.183 93.6629 139.499 92.1536 132.809C89.192 119.413 86.9471 105.863 85.0754 92.2648C84.1538 85.4629 83.3693 78.6419 82.7056 71.8086C82.3676 68.3927 82.0623 64.9727 81.799 61.55L81.4433 56.4132L81.2913 53.8442L81.2303 52.5603C81.2167 52.1396 81.195 51.6877 81.199 51.3199V51.2574C81.2004 51.1068 81.0796 50.9819 80.9276 50.9806C80.7783 50.9792 80.6575 51.0946 80.6493 51.2384Z" fill="white"/>
<g opacity="0.3">
<path opacity="0.3" d="M333.521 66.4303C333.97 66.5009 334.302 66.8999 334.279 67.3626C334.229 68.3764 334.133 69.4038 333.996 70.4149C333.929 70.9075 333.476 71.2509 332.983 71.1844C332.978 71.183 332.971 71.183 332.966 71.1816C332.482 71.107 332.147 70.6578 332.214 70.1719C332.345 69.2111 332.435 68.2353 332.484 67.2717C332.508 66.7764 332.93 66.3936 333.427 66.4194C333.458 66.4221 333.489 66.4262 333.521 66.4303ZM332.258 74.1592C332.294 74.1646 332.328 74.1728 332.363 74.1823C332.841 74.3153 333.12 74.812 332.987 75.2897C332.713 76.2723 332.394 77.2521 332.039 78.2021C331.865 78.6676 331.349 78.9024 330.882 78.7301C330.417 78.5564 330.18 78.0379 330.354 77.5738C330.692 76.6699 330.995 75.7389 331.255 74.8052C331.379 74.3628 331.815 74.09 332.258 74.1592ZM329.325 81.4172C329.424 81.4321 329.522 81.4647 329.616 81.5149C330.051 81.7511 330.214 82.2966 329.978 82.7336C329.494 83.628 328.963 84.5129 328.404 85.3638C328.13 85.7777 327.573 85.8917 327.158 85.6203C326.744 85.3475 326.628 84.7897 326.901 84.3744C327.433 83.5669 327.937 82.7269 328.397 81.8773C328.583 81.5339 328.96 81.3602 329.325 81.4172ZM324.842 87.8392C325.005 87.865 325.164 87.9356 325.297 88.0523C325.669 88.3807 325.705 88.948 325.377 89.3212C324.704 90.0853 323.99 90.829 323.254 91.5334C322.896 91.8754 322.327 91.8632 321.984 91.5049C321.64 91.1466 321.654 90.5766 322.012 90.2332C322.711 89.5655 323.39 88.8584 324.029 88.1324C324.238 87.8949 324.549 87.7944 324.842 87.8392ZM319.039 93.1009C319.268 93.1362 319.482 93.261 319.629 93.4632C319.919 93.8663 319.828 94.4282 319.425 94.7186C318.602 95.313 317.74 95.8803 316.866 96.4041C316.439 96.6593 315.888 96.5222 315.632 96.0961C315.377 95.6699 315.515 95.1189 315.94 94.8624C316.771 94.3644 317.589 93.8256 318.372 93.261C318.574 93.1158 318.813 93.0656 319.039 93.1009ZM312.217 96.947C312.514 96.9931 312.78 97.1872 312.906 97.4831C313.1 97.9404 312.887 98.4684 312.43 98.6624C311.493 99.0601 310.528 99.4238 309.561 99.74C309.088 99.8947 308.581 99.6382 308.426 99.1659C308.271 98.695 308.528 98.1861 309 98.0314C309.919 97.7301 310.837 97.3854 311.726 97.0067C311.888 96.9389 312.057 96.9212 312.217 96.947ZM279.338 93.9925C279.462 94.0115 279.583 94.0563 279.692 94.1296C280.5 94.6602 281.342 95.161 282.194 95.6211C282.631 95.8572 282.794 96.4028 282.558 96.8384C282.322 97.2754 281.777 97.4383 281.34 97.2022C280.443 96.7177 279.557 96.1897 278.706 95.6319C278.29 95.3591 278.175 94.8014 278.448 94.3874C278.647 94.0834 279 93.9409 279.338 93.9925ZM304.718 99.1836C305.087 99.2406 305.395 99.5256 305.464 99.9137C305.553 100.402 305.227 100.869 304.738 100.957C303.737 101.138 302.715 101.275 301.702 101.369C301.208 101.412 300.77 101.051 300.725 100.556C300.68 100.062 301.044 99.6233 301.538 99.5785C302.5 99.4903 303.471 99.3587 304.422 99.1877C304.521 99.17 304.622 99.1687 304.718 99.1836ZM286.327 97.5252C286.385 97.5347 286.444 97.5496 286.502 97.5699C287.409 97.9065 288.341 98.2078 289.274 98.4657C289.753 98.5987 290.032 99.094 289.899 99.5717C289.766 100.049 289.271 100.333 288.793 100.197C287.812 99.9246 286.829 99.6084 285.876 99.2542C285.411 99.0818 285.173 98.5634 285.346 98.0992C285.498 97.6934 285.913 97.4614 286.327 97.5252ZM296.905 99.6898C297.353 99.759 297.686 100.158 297.664 100.621C297.64 101.116 297.219 101.499 296.722 101.476C295.707 101.427 294.68 101.333 293.67 101.198C293.663 101.198 293.658 101.196 293.651 101.195C293.169 101.12 292.834 100.672 292.899 100.187C292.965 99.6939 293.417 99.3492 293.91 99.4157C294.87 99.5446 295.844 99.6328 296.809 99.6789C296.842 99.6817 296.874 99.6857 296.905 99.6898Z" fill="#91B3FA"/>
<path opacity="0.3" d="M274.396 90.0649C274.572 90.0921 274.74 90.1708 274.878 90.3024C275.214 90.6227 275.561 90.9403 275.911 91.2484C276.284 91.5768 276.32 92.1441 275.993 92.5173C275.664 92.8905 275.097 92.9271 274.724 92.5987C274.356 92.2744 273.989 91.9405 273.636 91.6039C273.277 91.2606 273.265 90.6919 273.607 90.3336C273.818 90.1111 274.116 90.0215 274.396 90.0649Z" fill="#91B3FA"/>
</g>
<g opacity="0.3">
<path opacity="0.3" d="M263.534 64.9035C263.963 64.97 264.291 65.3405 264.294 65.787C264.296 66.2498 264.308 66.7221 264.329 67.1876C264.353 67.6843 263.968 68.1037 263.473 68.1267C262.975 68.1498 262.557 67.7657 262.534 67.2704C262.512 66.7804 262.499 66.2837 262.497 65.7965C262.494 65.2998 262.896 64.8954 263.392 64.894C263.439 64.8927 263.488 64.8967 263.534 64.9035Z" fill="#91B3FA"/>
<path opacity="0.3" d="M303.9 30.1254C304.308 30.1892 304.718 30.2597 305.127 30.3384C305.614 30.4321 305.934 30.9017 305.842 31.3902C305.749 31.8788 305.276 32.1991 304.79 32.1054C303.845 31.9249 302.894 31.7838 301.955 31.6847C301.46 31.6318 301.104 31.1894 301.155 30.6967C301.208 30.2027 301.651 29.8444 302.143 29.8974C302.725 29.9571 303.316 30.0344 303.9 30.1254ZM309.718 31.5422C309.768 31.5504 309.817 31.5626 309.867 31.5789C310.819 31.8978 311.766 32.2615 312.685 32.6578C313.141 32.8546 313.35 33.3839 313.153 33.8385C312.957 34.2945 312.426 34.5049 311.971 34.3067C311.099 33.9294 310.199 33.5847 309.295 33.2821C308.824 33.1247 308.57 32.6144 308.729 32.1448C308.87 31.7227 309.293 31.4757 309.718 31.5422ZM297.417 29.725C297.837 29.7902 298.162 30.1457 298.176 30.5841C298.192 31.0808 297.801 31.4947 297.306 31.511C296.357 31.5409 295.396 31.6114 294.449 31.7227C293.956 31.7797 293.51 31.4269 293.451 30.9342C293.394 30.4416 293.747 29.9951 294.24 29.9367C295.236 29.82 296.249 29.7454 297.248 29.7142C297.306 29.7128 297.362 29.7169 297.417 29.725ZM316.712 34.7844C316.825 34.8021 316.936 34.8414 317.039 34.9039C317.896 35.4237 318.741 35.9855 319.55 36.5759C319.952 36.8677 320.04 37.4309 319.747 37.8312C319.454 38.2329 318.892 38.3212 318.492 38.028C317.723 37.4675 316.921 36.9342 316.107 36.4402C315.682 36.1823 315.546 35.6299 315.804 35.2052C315.998 34.8849 316.362 34.7302 316.712 34.7844ZM289.792 30.8189C290.135 30.8718 290.431 31.1242 290.525 31.4825C290.65 31.9629 290.361 32.4542 289.88 32.5777C288.961 32.8152 288.04 33.0962 287.14 33.4124C286.672 33.5766 286.159 33.3309 285.994 32.8614C285.83 32.3932 286.076 31.8802 286.545 31.7159C287.491 31.3834 288.462 31.0876 289.43 30.8379C289.552 30.8067 289.675 30.8012 289.792 30.8189ZM282.593 33.5603C282.867 33.6037 283.118 33.772 283.255 34.038C283.482 34.4804 283.307 35.0219 282.866 35.2486C282.019 35.6829 281.18 36.1579 280.372 36.6614C279.952 36.9247 279.397 36.7957 279.135 36.3737C278.873 35.9516 279 35.3979 279.422 35.1346C280.272 34.6053 281.154 34.1059 282.046 33.6485C282.22 33.5589 282.411 33.5318 282.593 33.5603ZM276.162 37.8054C276.371 37.838 276.569 37.9439 276.715 38.1189C277.032 38.5003 276.979 39.0676 276.598 39.3852C275.865 39.9945 275.15 40.6405 274.471 41.3069C274.117 41.6543 273.548 41.6502 273.199 41.296C272.852 40.9418 272.856 40.3732 273.21 40.0244C273.924 39.3241 274.676 38.6428 275.447 38.0022C275.656 37.8299 275.917 37.7674 276.162 37.8054ZM270.81 43.3507C270.956 43.3738 271.097 43.4308 271.22 43.5272C271.614 43.8298 271.686 44.3944 271.383 44.7879C270.801 45.5425 270.246 46.3297 269.73 47.1277C269.461 47.5443 268.904 47.6651 268.488 47.3964C268.07 47.1277 267.951 46.5712 268.219 46.1532C268.762 45.3118 269.347 44.4826 269.959 43.6887C270.167 43.4213 270.497 43.3019 270.81 43.3507ZM266.805 49.9383C266.887 49.9505 266.968 49.9749 267.045 50.0116C267.496 50.2206 267.691 50.7553 267.482 51.2059C267.082 52.0677 266.713 52.9579 266.387 53.8523C266.216 54.3192 265.699 54.558 265.235 54.3884C264.768 54.2174 264.529 53.7017 264.699 53.2348C265.043 52.2929 265.432 51.3565 265.852 50.4499C266.025 50.0767 266.42 49.8786 266.805 49.9383ZM264.347 57.2397C264.365 57.2424 264.384 57.2465 264.401 57.2506C264.886 57.3564 265.194 57.8355 265.087 58.3214C264.938 59.0054 264.807 59.7029 264.699 60.3937C264.659 60.6434 264.624 60.8945 264.59 61.1442C264.525 61.6369 264.072 61.9816 263.58 61.9164C263.081 61.8594 262.743 61.398 262.808 60.9067C262.843 60.6434 262.881 60.3815 262.922 60.1182C263.035 59.3908 263.173 58.6579 263.331 57.9373C263.434 57.4691 263.882 57.1678 264.347 57.2397Z" fill="#91B3FA"/>
<path opacity="0.3" d="M322.835 39.5019C323.011 39.529 323.181 39.6091 323.319 39.7421C323.67 40.08 324.02 40.4315 324.359 40.7871C324.702 41.1467 324.689 41.7154 324.331 42.0574C323.971 42.4007 323.402 42.3871 323.06 42.0289C322.737 41.6909 322.405 41.3571 322.072 41.0368C321.715 40.6921 321.704 40.1234 322.049 39.7665C322.259 39.5466 322.555 39.4584 322.835 39.5019Z" fill="#91B3FA"/>
</g>
<path d="M320.032 49.6167C319.941 49.4619 319.763 49.3819 319.587 49.4172L314.573 50.4228C312.928 48.6924 310.994 47.2104 308.821 46.0637L308.43 40.9689C308.416 40.7898 308.29 40.6405 308.118 40.5944L302.182 39.0445C302.009 38.9997 301.826 39.0689 301.726 39.2182L298.894 43.4715C296.437 43.4091 294.027 43.7565 291.745 44.4609L287.863 41.1332C287.728 41.0164 287.532 40.9988 287.377 41.0897L282.085 44.1908C281.931 44.2817 281.851 44.4609 281.886 44.6359L282.892 49.6492C281.161 51.2941 279.679 53.228 278.532 55.4008L273.437 55.7916C273.258 55.8052 273.108 55.9314 273.062 56.1038L271.512 62.0386C271.467 62.2123 271.537 62.3955 271.686 62.4946L275.94 65.3269C275.877 67.7834 276.225 70.1936 276.929 72.475L273.6 76.3564C273.483 76.4921 273.465 76.6876 273.556 76.8423L276.658 82.1338C276.749 82.2885 276.926 82.3686 277.103 82.3333L282.117 81.3276C283.762 83.058 285.696 84.54 287.869 85.6868L288.26 90.7815C288.273 90.9606 288.399 91.1099 288.572 91.1561L294.507 92.7059C294.681 92.7507 294.864 92.6815 294.963 92.5322L297.796 88.2789C300.252 88.3413 302.663 87.9939 304.945 87.2896L308.826 90.6173C308.962 90.734 309.158 90.7516 309.312 90.6607L314.604 87.5596C314.759 87.4687 314.839 87.2909 314.804 87.1145L313.798 82.1012C315.529 80.4564 317.011 78.5224 318.158 76.3496L323.253 75.9588C323.432 75.9452 323.581 75.819 323.627 75.6466L325.177 69.7119C325.222 69.5381 325.153 69.3549 325.004 69.2559L320.75 66.4235C320.812 63.9671 320.465 61.5568 319.761 59.2754L323.089 55.394C323.205 55.2583 323.223 55.0629 323.132 54.9081L320.032 49.6167Z" fill="#91B3FA"/>
<path d="M299.297 59.7844C302.267 60.2471 304.535 62.8339 304.51 65.9268C304.482 69.3265 301.694 72.0693 298.294 72.0421C296.646 72.0285 295.104 71.3744 293.949 70.2005C292.794 69.0265 292.166 67.4726 292.179 65.8264C292.207 62.4267 294.996 59.6839 298.396 59.7111C298.701 59.7138 299.003 59.7396 299.297 59.7844ZM297.606 70.5465C297.835 70.5818 298.069 70.6008 298.305 70.6035C300.911 70.6252 303.05 68.5217 303.07 65.9159C303.092 63.3089 300.988 61.1714 298.381 61.151C295.775 61.1293 293.636 63.2329 293.615 65.8386C293.605 67.1007 294.088 68.2923 294.973 69.1921C295.693 69.9236 296.611 70.3918 297.606 70.5465Z" fill="#BDD0FB"/>
<path d="M300.542 50.967C301.052 51.0471 301.561 51.1516 302.067 51.2846C302.226 51.3267 302.385 51.3701 302.544 51.4176C303.323 51.6483 304.081 51.9401 304.81 52.2889C304.82 52.2943 304.831 52.2984 304.84 52.3024C304.869 52.316 304.896 52.3296 304.924 52.3432C304.978 52.3703 305.033 52.3974 305.087 52.4246C305.23 52.4965 305.304 52.6512 305.281 52.8005C305.276 52.8372 305.263 52.8738 305.246 52.9077C305.156 53.0855 304.94 53.1547 304.763 53.0665C303.851 52.6051 302.883 52.24 301.885 51.9808C296.934 50.6874 291.9 52.1382 288.401 55.3845C286.454 57.1895 284.982 59.5509 284.264 62.3046C284.138 62.7877 284.037 63.2736 283.961 63.7594C283.452 67.0329 284.078 70.3551 285.776 73.2526C287.726 76.5804 290.855 78.9499 294.587 79.9244C302.295 81.9356 310.197 77.3051 312.209 69.6019C312.332 69.1269 312.433 68.6479 312.507 68.1661C312.832 66.0774 312.696 63.9413 312.103 61.911C312.088 61.8581 312.085 61.8051 312.093 61.7549C312.114 61.6219 312.21 61.5052 312.347 61.4645C312.538 61.4089 312.738 61.5174 312.794 61.7088C313.418 63.8409 313.56 66.0829 313.218 68.276C313.14 68.7822 313.035 69.2857 312.905 69.7838C310.793 77.8724 302.492 82.7323 294.405 80.6219C290.487 79.5986 287.202 77.111 285.156 73.6177C283.373 70.5764 282.715 67.0885 283.25 63.6522C283.33 63.1419 283.436 62.6316 283.568 62.1254C284.591 58.2074 287.079 54.9231 290.572 52.8751C293.615 51.0892 297.105 50.4309 300.542 50.967Z" fill="#BDD0FB"/>
<g opacity="0.3">
<path opacity="0.3" d="M367.478 47.7438C367.716 47.7804 367.91 47.9691 367.943 48.2202C368.004 48.687 368.052 49.1634 368.086 49.6329C368.108 49.9383 367.879 50.2043 367.572 50.226C367.265 50.2491 367.001 50.017 366.979 49.7116C366.946 49.2638 366.902 48.8105 366.842 48.364C366.801 48.06 367.016 47.7818 367.32 47.7411C367.374 47.7343 367.427 47.7357 367.478 47.7438Z" fill="#91B3FA"/>
<path opacity="0.3" d="M367.645 52.012C367.924 52.0554 368.129 52.3024 368.114 52.5901C368.072 53.4003 367.986 54.2187 367.861 55.0194C367.835 55.1877 367.807 55.3573 367.777 55.527C367.723 55.8296 367.42 56.0169 367.134 55.9776C366.832 55.9246 366.63 55.6356 366.684 55.3343C366.713 55.1728 366.74 55.0113 366.766 54.8498C366.885 54.0857 366.965 53.3053 367.008 52.5331C367.024 52.2264 367.284 51.9916 367.591 52.0079C367.609 52.0066 367.628 52.0079 367.645 52.012ZM366.638 57.6876C366.664 57.6916 366.691 57.6971 366.716 57.7052C367.009 57.7948 367.174 58.1056 367.084 58.3987C366.796 59.3392 366.446 60.2702 366.047 61.1659C365.922 61.4455 365.592 61.5703 365.314 61.4468C365.034 61.322 364.908 60.9936 365.033 60.714C365.414 59.8603 365.748 58.9714 366.022 58.0743C366.105 57.8056 366.37 57.6455 366.638 57.6876ZM364.285 62.9492C364.354 62.9601 364.423 62.9845 364.487 63.0225C364.749 63.1813 364.833 63.5233 364.674 63.7852C364.165 64.6253 363.598 65.4423 362.987 66.2145C362.797 66.4561 362.448 66.4954 362.207 66.3054C361.967 66.1154 361.926 65.7666 362.116 65.5264C362.698 64.7908 363.238 64.0118 363.724 63.2111C363.844 63.0116 364.069 62.9153 364.285 62.9492ZM360.708 67.4726C360.822 67.4902 360.931 67.5431 361.018 67.6313C361.232 67.8498 361.231 68.2013 361.012 68.4171C360.311 69.1079 359.561 69.7607 358.782 70.3592C358.539 70.5451 358.191 70.499 358.003 70.2561C357.816 70.0131 357.862 69.6643 358.105 69.4771C358.848 68.9084 359.563 68.2841 360.231 67.6259C360.364 67.497 360.54 67.4454 360.708 67.4726ZM356.137 70.9848C356.296 71.0093 356.442 71.1029 356.531 71.2522C356.687 71.5168 356.599 71.8561 356.334 72.0122C355.487 72.5103 354.601 72.9622 353.701 73.3531C353.42 73.4766 353.093 73.3463 352.971 73.0653C352.848 72.7844 352.977 72.4573 353.258 72.3352C354.117 71.962 354.962 71.5318 355.771 71.0554C355.885 70.9862 356.014 70.9658 356.137 70.9848ZM350.852 73.2798C351.057 73.3123 351.236 73.4589 351.3 73.672C351.387 73.9665 351.218 74.2746 350.924 74.3614C349.98 74.6396 349.011 74.8609 348.044 75.0196C347.74 75.0685 347.456 74.8636 347.406 74.5609C347.355 74.2583 347.562 73.9733 347.863 73.9231C348.786 73.7711 349.71 73.5607 350.609 73.2961C350.69 73.2716 350.773 73.2676 350.852 73.2798ZM345.166 74.2135C345.423 74.2529 345.625 74.4713 345.634 74.7401C345.647 75.0468 345.408 75.3046 345.101 75.3168C344.122 75.3548 343.128 75.3318 342.146 75.249C341.841 75.2178 341.614 74.9531 341.64 74.6478C341.666 74.3424 341.934 74.1158 342.24 74.1416C343.176 74.2216 344.125 74.2433 345.058 74.2067C345.096 74.2067 345.132 74.2081 345.166 74.2135ZM336.638 72.9568C336.67 72.9622 336.702 72.969 336.733 72.9798C337.499 73.2418 338.293 73.4671 339.092 73.6489C339.213 73.6774 339.333 73.7032 339.452 73.7276C339.752 73.7914 339.945 74.0846 339.882 74.3845C339.82 74.6858 339.521 74.8853 339.225 74.8147C339.098 74.7876 338.972 74.7604 338.845 74.7306C338.011 74.5406 337.179 74.3044 336.375 74.0289C336.085 73.9298 335.93 73.6136 336.03 73.3232C336.116 73.0681 336.376 72.9161 336.638 72.9568Z" fill="#91B3FA"/>
</g>
<g opacity="0.3">
<path opacity="0.3" d="M347.529 27.6092C347.829 27.6554 348.035 27.9349 347.993 28.2362C347.95 28.5402 347.669 28.7506 347.365 28.7071C346.452 28.5769 345.522 28.5009 344.602 28.4832C344.297 28.4737 344.052 28.224 344.057 27.9173C344.064 27.6106 344.318 27.3676 344.623 27.3731C345.588 27.3934 346.563 27.4721 347.52 27.6079C347.524 27.6079 347.526 27.6092 347.529 27.6092ZM350.312 28.1779C350.332 28.1806 350.351 28.1846 350.37 28.1901C351.304 28.4398 352.232 28.7492 353.128 29.1089C353.413 29.2229 353.55 29.5459 353.436 29.8309C353.322 30.1159 352.998 30.2529 352.714 30.1403C351.859 29.7969 350.973 29.5024 350.082 29.2636C349.786 29.1849 349.61 28.8795 349.69 28.5836C349.765 28.3068 350.035 28.1344 350.312 28.1779ZM341.86 27.4952C342.103 27.5332 342.3 27.73 342.327 27.9865C342.358 28.2905 342.137 28.5633 341.831 28.5959C340.912 28.6909 339.992 28.8429 339.095 29.0464C338.795 29.1129 338.498 28.927 338.43 28.6284C338.362 28.3299 338.549 28.0313 338.848 27.9634C339.789 27.749 340.754 27.5902 341.717 27.4911C341.766 27.4857 341.815 27.4871 341.86 27.4952ZM355.575 30.2936C355.638 30.3031 355.7 30.3235 355.758 30.3561C356.605 30.8229 357.432 31.3482 358.215 31.9141C358.463 32.0932 358.519 32.4407 358.34 32.689C358.161 32.936 357.813 32.9917 357.565 32.8125C356.818 32.2724 356.03 31.7729 355.222 31.3264C354.953 31.1785 354.856 30.8406 355.005 30.5719C355.119 30.3642 355.351 30.2584 355.575 30.2936ZM336.333 28.7533C336.527 28.7831 336.699 28.9161 336.77 29.1143C336.875 29.4034 336.724 29.7209 336.436 29.8254C335.569 30.1376 334.712 30.5054 333.889 30.9206C333.614 31.0591 333.28 30.9478 333.142 30.675C333.004 30.4009 333.115 30.067 333.388 29.9286C334.251 29.4943 335.149 29.1075 336.059 28.7804C336.151 28.7479 336.245 28.7397 336.333 28.7533ZM331.269 31.302C331.418 31.3251 331.557 31.4079 331.646 31.5436C331.816 31.7987 331.747 32.1434 331.492 32.3131C330.722 32.8247 329.978 33.3879 329.279 33.9851C329.046 34.1846 328.696 34.1574 328.496 33.924C328.297 33.6906 328.324 33.3404 328.557 33.1423C329.29 32.5153 330.071 31.9249 330.877 31.3889C330.996 31.3088 331.136 31.2816 331.269 31.302ZM326.961 34.9907C327.066 35.007 327.166 35.0532 327.25 35.1305C327.477 35.3382 327.492 35.6883 327.284 35.9149C326.66 36.5949 326.072 37.3209 325.537 38.0701C325.359 38.3184 325.012 38.3768 324.762 38.199C324.512 38.0212 324.454 37.6738 324.633 37.4241C325.194 36.6383 325.81 35.8783 326.464 35.1644C326.596 35.0206 326.783 34.9622 326.961 34.9907Z" fill="#91B3FA"/>
<path opacity="0.3" d="M360.19 33.6363C360.296 33.6526 360.397 33.7001 360.482 33.7788C360.829 34.1018 361.17 34.4384 361.493 34.7763C361.705 34.9975 361.696 35.349 361.475 35.5621C361.253 35.7725 360.902 35.7657 360.689 35.5444C360.381 35.2228 360.057 34.9025 359.726 34.5931C359.502 34.3841 359.488 34.0326 359.697 33.8087C359.827 33.6662 360.013 33.6078 360.19 33.6363Z" fill="#91B3FA"/>
</g>
<path d="M358.63 40.6514C358.569 40.5482 358.45 40.4939 358.333 40.5184L354.978 41.1915C353.877 40.0339 352.584 39.0418 351.129 38.275L350.867 34.8659C350.857 34.7464 350.773 34.646 350.658 34.6148L346.686 33.5779C346.57 33.5481 346.447 33.5942 346.381 33.6947L344.485 36.5406C342.841 36.4985 341.227 36.7306 339.7 37.2029L337.103 34.9758C337.012 34.8984 336.881 34.8862 336.777 34.9473L333.236 37.0224C333.132 37.0834 333.078 37.2029 333.103 37.3196L333.776 40.6744C332.618 41.7751 331.626 43.0684 330.859 44.5233L327.45 44.7852C327.33 44.7947 327.23 44.8789 327.199 44.9942L326.162 48.9652C326.132 49.0819 326.178 49.2041 326.278 49.2706L329.124 51.1665C329.082 52.81 329.314 54.4237 329.787 55.9504L327.56 58.548C327.482 58.6389 327.47 58.7692 327.531 58.8724L329.606 62.4132C329.667 62.5163 329.787 62.5706 329.904 62.5462L333.259 61.873C334.359 63.0307 335.653 64.0227 337.108 64.7895L337.37 68.1987C337.379 68.3181 337.464 68.4185 337.579 68.4497L341.55 69.4866C341.666 69.5164 341.789 69.4703 341.856 69.3699L343.752 66.5239C345.395 66.566 347.009 66.3339 348.536 65.8617L351.134 68.0887C351.225 68.1674 351.355 68.1783 351.46 68.1172L355.001 66.0422C355.104 65.9811 355.158 65.8617 355.134 65.7449L354.461 62.3901C355.618 61.2894 356.611 59.9961 357.377 58.5412L360.787 58.2793C360.906 58.2698 361.007 58.1857 361.037 58.0703L362.074 54.0993C362.103 53.9826 362.057 53.8604 361.957 53.7939L359.111 51.898C359.153 50.2545 358.921 48.6409 358.448 47.1141L360.676 44.5165C360.754 44.4256 360.765 44.2953 360.704 44.1908L358.63 40.6514Z" fill="#91B3FA"/>
<path d="M344.773 47.3828C345.657 47.5212 346.472 47.9365 347.111 48.5866C347.898 49.3859 348.326 50.4445 348.316 51.5669C348.297 53.8821 346.399 55.7496 344.083 55.7319C341.765 55.7088 339.899 53.8129 339.918 51.4976C339.927 50.3753 340.372 49.3249 341.172 48.5377C341.971 47.7506 343.03 47.3231 344.152 47.3326C344.361 47.3339 344.569 47.3516 344.773 47.3828ZM343.641 54.5838C343.789 54.6069 343.939 54.6191 344.093 54.6204C345.796 54.634 347.193 53.2592 347.208 51.556C347.214 50.7309 346.899 49.9519 346.321 49.3642C345.742 48.7752 344.969 48.4495 344.144 48.4414C343.319 48.4346 342.54 48.7494 341.952 49.3276C341.363 49.9071 341.036 50.6793 341.029 51.5044C341.016 53.0556 342.153 54.3517 343.641 54.5838Z" fill="#BDD0FB"/>
<path d="M345.648 41.2458C345.995 41.3001 346.343 41.372 346.689 41.4629C347.378 41.6421 348.049 41.8932 348.686 42.2067C348.714 42.2216 348.743 42.2352 348.771 42.2501C348.991 42.3614 349.105 42.5989 349.07 42.8309C349.062 42.8866 349.042 42.9436 349.017 42.9965C348.878 43.2707 348.544 43.3779 348.272 43.2408C347.68 42.9422 347.053 42.7061 346.409 42.5378C346.374 42.5283 346.339 42.5202 346.304 42.5107C344.775 42.1279 343.21 42.1388 341.725 42.5229C340.919 42.7305 340.136 43.0494 339.395 43.4742C339.39 43.4783 339.383 43.481 339.377 43.4851C339.358 43.4959 339.341 43.5068 339.323 43.5177C337.169 44.7798 335.634 46.806 335.003 49.2217C334.921 49.5339 334.856 49.8487 334.807 50.1636C334.478 52.2834 334.883 54.4332 335.983 56.3101C337.245 58.4639 339.271 59.9974 341.687 60.6285C344.102 61.2582 346.621 60.9121 348.775 59.65C350.929 58.3879 352.464 56.3616 353.095 53.9459C353.175 53.6392 353.241 53.3284 353.288 53.0163C353.498 51.6646 353.41 50.2816 353.026 48.9666C353.003 48.8852 352.998 48.8037 353.01 48.725C353.042 48.5187 353.189 48.3396 353.402 48.2772C353.697 48.1917 354.005 48.3599 354.092 48.6544C354.522 50.1256 354.621 51.6727 354.385 53.1846C354.33 53.5334 354.259 53.8808 354.169 54.2241C353.463 56.9276 351.746 59.194 349.336 60.6054C346.925 62.0169 344.11 62.4091 341.406 61.7006C338.703 60.9949 336.436 59.2795 335.025 56.8679C333.795 54.7697 333.34 52.3635 333.709 49.9926C333.764 49.6411 333.837 49.2882 333.928 48.9394C335.293 43.7063 340.414 40.4315 345.648 41.2458Z" fill="#BDD0FB"/>
<path d="M229.332 379.667H113.119V208.594C113.119 205.563 115.576 203.108 118.606 203.108H223.845C226.876 203.108 229.331 205.565 229.331 208.594V379.667H229.332Z" fill="url(#paint1_linear_107_426)"/>
<path d="M199.811 379.667H83.5974V208.594C83.5974 205.563 86.054 203.108 89.0835 203.108H194.323C197.353 203.108 199.809 205.565 199.809 208.594V379.667H199.811Z" fill="url(#paint2_linear_107_426)"/>
<path opacity="0.43" d="M91.3895 236.16C91.0081 236.16 90.6986 235.851 90.6986 235.469V222.943C90.6986 216.224 97.0629 210.757 104.885 210.757H127.203C127.584 210.757 127.893 211.066 127.893 211.448C127.893 211.829 127.584 212.139 127.203 212.139H104.885C97.8243 212.139 92.0803 216.985 92.0803 222.943V235.469C92.0803 235.852 91.7709 236.16 91.3895 236.16Z" fill="white"/>
<path opacity="0.43" d="M91.3895 249.442C91.0081 249.442 90.6986 249.133 90.6986 248.752V243.649C90.6986 243.267 91.0081 242.958 91.3895 242.958C91.7709 242.958 92.0803 243.267 92.0803 243.649V248.752C92.0803 249.133 91.7709 249.442 91.3895 249.442Z" fill="white"/>
<path d="M110.455 380H25.1489V260.781C25.1489 257.751 27.6056 255.296 30.635 255.296H104.969C108 255.296 110.455 257.752 110.455 260.781V380V380Z" fill="#7D97F4"/>
<path d="M85.3062 380H0V260.781C0 257.751 2.45667 255.296 5.48611 255.296H79.82C82.8508 255.296 85.3062 257.752 85.3062 260.781V380V380Z" fill="#91B3FA"/>
<path d="M7.04156 290.891C6.66017 290.891 6.35071 290.581 6.35071 290.2V275.421C6.35071 267.562 12.7462 261.167 20.6062 261.167H43.0365C43.4179 261.167 43.7274 261.476 43.7274 261.858C43.7274 262.239 43.4179 262.548 43.0365 262.548H20.6062C13.5076 262.548 7.73377 268.323 7.73377 275.419V290.199C7.73241 290.581 7.42296 290.891 7.04156 290.891Z" fill="#BDD0FB"/>
<path d="M7.04156 306.562C6.66017 306.562 6.35071 306.252 6.35071 305.871V299.849C6.35071 299.468 6.66017 299.159 7.04156 299.159C7.42295 299.159 7.73241 299.468 7.73241 299.849V305.871C7.73241 306.252 7.42295 306.562 7.04156 306.562Z" fill="#BDD0FB"/>
<path d="M207.044 205.343C207.165 205.343 207.289 205.337 207.412 205.322C209.162 205.121 210.417 203.54 210.215 201.79L190.202 27.6554C190.001 25.9074 188.417 24.6547 186.67 24.8529C184.921 25.0537 183.665 26.6348 183.867 28.3842L203.881 202.521C204.068 204.145 205.445 205.343 207.044 205.343Z" fill="#7D97F4"/>
<path d="M97.0344 205.345C98.4934 205.345 99.81 204.336 100.143 202.853L139.19 28.7167C139.575 26.9985 138.495 25.294 136.777 24.9085C135.063 24.5258 133.354 25.6034 132.968 27.3215L93.9194 201.458C93.534 203.176 94.6143 204.881 96.3327 205.266C96.5675 205.319 96.8023 205.345 97.0344 205.345Z" fill="#7D97F4"/>
<path d="M162.976 205.343C164.737 205.343 166.165 203.916 166.165 202.155V116.217C166.165 114.457 164.737 113.029 162.976 113.029C161.216 113.029 159.788 114.457 159.788 116.217V202.155C159.788 203.916 161.216 205.343 162.976 205.343Z" fill="#7D97F4"/>
<path d="M226.78 8.53731L215.571 149.707C215.333 152.693 212.805 154.973 209.809 154.9L92.7372 152.044C89.3237 151.961 86.7666 148.889 87.3041 145.518L109.717 4.7536C110.161 1.96603 112.597 -0.0642598 115.419 0.000883069L221.288 2.45188C224.526 2.52653 227.037 5.30867 226.78 8.53731Z" fill="url(#paint3_linear_107_426)"/>
<path opacity="0.97" d="M216.981 6.33738L118.806 4.06552C115.985 4.00038 113.548 6.03066 113.105 8.81824L91.9568 141.647C91.4207 145.018 93.9778 148.09 97.39 148.174L206.135 150.826C209.129 150.899 211.659 148.619 211.897 145.633L222.474 12.4242C222.73 9.19416 220.219 6.41338 216.981 6.33738Z" fill="white"/>
<path d="M165.991 15.281L215.47 18.04C215.978 18.0685 216.361 18.5096 216.317 19.0158L216.249 19.8098C216.207 20.301 215.778 20.6661 215.287 20.6308L165.875 17.0765C165.375 17.0398 165 16.6015 165.042 16.1007C165.085 15.6175 165.505 15.2538 165.991 15.281Z" fill="#91B3FA"/>
<path d="M164.688 20.2399L164.659 20.5792C164.617 21.0746 164.984 21.5116 165.479 21.5537L214.832 25.7893C215.328 25.8314 215.765 25.465 215.807 24.9696L215.835 24.6303C215.877 24.135 215.511 23.6979 215.016 23.6559L165.662 19.4202C165.167 19.3768 164.731 19.7446 164.688 20.2399Z" fill="#91B3FA"/>
<path d="M179.288 25.9495L179.276 26.0987C179.234 26.5941 179.6 27.0311 180.096 27.0732L214.47 30.0236C214.965 30.0657 215.402 29.6992 215.444 29.2039L215.504 28.505C215.548 28.0042 215.172 27.5645 214.669 27.5292L180.249 25.1297C179.758 25.0945 179.33 25.4595 179.288 25.9495Z" fill="#91B3FA"/>
<path d="M165.259 123.806C165.251 123.156 164.628 122.551 163.54 122.027C164.8 121.439 165.523 120.766 165.513 120.056C165.485 117.912 158.812 116.261 150.607 116.368C142.403 116.475 135.775 118.299 135.802 120.443C135.81 121.093 136.433 121.699 137.522 122.222C136.261 122.811 135.539 123.485 135.548 124.193C135.557 124.843 136.18 125.448 137.268 125.972C136.007 126.56 135.285 127.234 135.295 127.943C135.303 128.593 135.926 129.198 137.014 129.722C135.753 130.311 135.031 130.984 135.041 131.693C135.053 132.641 136.367 133.492 138.537 134.138C138.461 134.833 138.426 135.598 138.437 136.447C138.491 140.399 142.703 143.778 148.55 144.173C154.397 144.568 159.742 140.708 160.065 136.77C160.144 135.805 160.16 134.951 160.125 134.19C162.986 133.445 164.767 132.419 164.752 131.306C164.743 130.656 164.12 130.05 163.032 129.527C164.293 128.938 165.015 128.264 165.005 127.556C164.997 126.906 164.374 126.301 163.286 125.777C164.548 125.188 165.269 124.515 165.259 123.806Z" fill="url(#paint4_linear_107_426)"/>
<path d="M145.523 135.463C143.1 135.299 140.895 134.971 139.086 134.496C138.981 134.469 138.917 134.362 138.946 134.256C138.973 134.152 139.08 134.088 139.186 134.116C142.016 134.859 145.837 135.239 149.945 135.185C153.307 135.141 156.47 134.813 159.093 134.236C159.199 134.213 159.304 134.279 159.327 134.385C159.35 134.491 159.283 134.596 159.177 134.619C156.529 135.201 153.338 135.532 149.951 135.577C148.425 135.597 146.937 135.558 145.523 135.463Z" fill="#7D97F4"/>
<path d="M145.818 131.712C142.669 131.498 139.875 131.013 137.928 130.314C137.826 130.277 137.773 130.164 137.81 130.063C137.846 129.961 137.959 129.908 138.061 129.945C140.835 130.941 145.371 131.498 150.198 131.436C154.971 131.374 159.465 130.71 162.216 129.66C162.318 129.622 162.431 129.672 162.47 129.774C162.508 129.875 162.458 129.988 162.356 130.027C159.563 131.094 155.019 131.767 150.202 131.83C148.7 131.847 147.224 131.807 145.818 131.712Z" fill="#7D97F4"/>
<path d="M146.031 127.962C142.631 127.732 139.68 127.183 137.721 126.388C137.621 126.347 137.572 126.231 137.613 126.131C137.654 126.031 137.768 125.982 137.869 126.022C140.593 127.13 145.298 127.75 150.451 127.684C155.225 127.621 159.717 126.958 162.47 125.907C162.572 125.869 162.684 125.919 162.724 126.021C162.762 126.123 162.712 126.236 162.61 126.275C159.817 127.342 155.272 128.015 150.455 128.077C148.93 128.099 147.442 128.058 146.031 127.962Z" fill="#7D97F4"/>
<path d="M146.31 124.213C143.613 124.032 141.176 123.647 139.297 123.095C139.193 123.064 139.133 122.955 139.164 122.851C139.195 122.746 139.304 122.687 139.409 122.718C142.233 123.548 146.351 123.992 150.705 123.937C155.437 123.875 159.906 123.22 162.661 122.183C162.763 122.145 162.876 122.197 162.914 122.298C162.952 122.4 162.9 122.513 162.798 122.551C160.002 123.603 155.483 124.268 150.709 124.329C149.201 124.349 147.72 124.308 146.31 124.213Z" fill="#7D97F4"/>
<path d="M131.511 102.514C130.756 98.9366 129.295 95.5437 127.22 92.5336C122.776 86.0831 115.693 73.0993 115.865 56.0414C116.116 31.2301 138.874 20.3377 158.765 23.3682C178.656 26.3987 197.387 42.626 193.674 65.4722C191.388 79.5295 182.744 89.7257 176.431 95.4908C172.423 99.151 169.427 103.764 167.629 108.886C165.428 115.154 160.678 122.83 150.637 122.64C137.644 122.392 133.08 109.957 131.511 102.514Z" fill="url(#paint5_linear_107_426)"/>
<path d="M154.279 117.933L164.354 72.8849C164.562 71.9539 165.068 71.354 165.483 71.544C165.898 71.734 166.067 72.6433 165.859 73.5729C165.854 73.5974 165.847 73.6286 165.84 73.653L154.82 118.212C154.738 118.547 154.55 118.75 154.404 118.664C154.26 118.583 154.207 118.258 154.279 117.933Z" fill="url(#paint6_linear_107_426)"/>
<path d="M146.989 117.804L143.065 71.81C142.984 70.86 142.564 70.1977 142.127 70.3294C141.69 70.4624 141.401 71.3391 141.482 72.2904C141.485 72.3162 141.488 72.3474 141.491 72.3719L146.416 118.007C146.453 118.351 146.612 118.576 146.769 118.512C146.921 118.45 147.017 118.136 146.989 117.804Z" fill="url(#paint7_linear_107_426)"/>
<path d="M164.568 68.9736C164.41 68.6764 164.006 68.5407 163.666 68.6723L159.645 70.2303L158.553 66.2851C158.495 66.0788 158.341 65.8902 158.112 65.7762C157.676 65.5618 157.129 65.6907 156.889 66.0639L156.881 66.0761L153.281 71.7028L150.869 63.184L150.865 63.1705C150.806 62.9628 150.664 62.7701 150.45 62.633C149.969 62.3277 149.302 62.4118 148.958 62.823L144.061 68.6886C143.862 68.9288 143.901 69.2722 144.167 69.4771C144.449 69.697 144.88 69.6793 145.127 69.4377L149.37 65.3039L152.387 73.4576L152.39 73.4644C152.438 73.5947 152.537 73.7127 152.681 73.7928C153.004 73.972 153.428 73.8919 153.627 73.615L157.426 68.3466L158.528 71.2156L158.538 71.2414C158.546 71.2617 158.556 71.2821 158.566 71.3025C158.725 71.5997 159.128 71.734 159.469 71.6024L164.241 69.754C164.579 69.6196 164.726 69.2722 164.568 68.9736Z" fill="white"/>
<path opacity="0.69" d="M176.955 89.9971C176.694 89.9795 176.438 89.8818 176.225 89.6999C175.697 89.2493 175.633 88.4568 176.083 87.9275C177.376 86.4129 178.571 84.8386 179.638 83.2494C180.025 82.6726 180.805 82.5192 181.382 82.906C181.959 83.2928 182.112 84.0732 181.726 84.65C180.605 86.3193 179.35 87.9709 177.997 89.5588C177.728 89.8736 177.339 90.0229 176.955 89.9971Z" fill="white"/>
<path opacity="0.69" d="M183.382 80.5053C183.215 80.4944 183.048 80.4496 182.89 80.3668C182.274 80.0479 182.032 79.2893 182.351 78.6731C190.823 62.2843 185.468 47.7113 185.412 47.566C185.166 46.9173 185.492 46.1913 186.142 45.9456C186.792 45.7 187.517 46.027 187.763 46.6758C188.003 47.3123 193.567 62.4539 184.584 79.828C184.347 80.2868 183.866 80.5378 183.382 80.5053Z" fill="white"/>
<path d="M95.4748 107.459C95.6065 107.877 94.0823 108.515 93.1851 106.804C93.1539 105.984 92.6544 102.471 93.1444 101.803C95.7544 98.2458 100.814 93.7849 100.814 93.7849C101.669 94.629 100.965 95.4569 100.965 95.4569L98.511 98.0137C99.0241 98.942 99.6512 99.7251 99.9443 100.846C100.167 101.696 100.031 102.604 99.6009 103.377C99.1707 104.153 98.5816 105.162 98.0265 105.952C96.9746 107.449 95.4748 107.459 95.4748 107.459Z" fill="url(#paint8_linear_107_426)"/>
<path d="M97.4375 99.6749L95.2006 101.571L94.4989 103.459L96.4928 105.671C96.4928 105.671 97.1633 101.925 97.6614 101.115C98.1609 100.303 97.9016 99.911 97.4375 99.6749Z" fill="url(#paint9_linear_107_426)"/>
<path d="M51.5385 247.09C51.5385 247.09 50.9738 250.289 50.697 253.455C50.5884 254.693 51.5425 255.768 52.7845 255.82C57.0015 255.995 66.022 256.337 69.2591 256.193C69.7463 256.171 70.0639 255.673 69.8834 255.221C69.7328 254.842 69.4409 254.536 69.0704 254.365L54.1702 247.517L51.5385 247.09Z" fill="url(#paint10_linear_107_426)"/>
<path d="M51.0743 245.212L51.529 249.038C51.529 249.038 54.139 250.253 55.9211 248.885L54.8407 244.62L51.0743 245.212Z" fill="url(#paint11_linear_107_426)"/>
<path d="M51.4163 173.278C51.2195 174.277 50.3631 223.14 55.5872 245.036C55.6727 245.393 55.4908 245.762 55.1515 245.9C54.3507 246.227 52.7804 246.701 50.8978 246.765C50.3142 246.784 49.7916 246.405 49.6274 245.846C48.1344 240.766 40.9802 215.312 40.0464 190.996C39.004 163.826 40.0464 190.07 40.0464 190.07L40.6585 173.275L51.4163 173.278Z" fill="url(#paint12_linear_107_426)"/>
<path d="M34.3975 248.76C34.3975 248.76 33.4976 250.375 32.6276 254.666C32.4701 255.441 33.0117 256.183 33.7989 256.259C35.1915 256.396 37.3346 256.573 39.0516 256.561C39.8429 256.555 40.4604 255.866 40.3654 255.08C40.1754 253.514 39.5823 250.943 37.7526 248.942L34.3975 248.76Z" fill="url(#paint13_linear_107_426)"/>
<path d="M33.6075 243.839L34.6689 249.624C34.6689 249.624 35.718 250.405 37.7933 249.839L37.287 243.613L33.6075 243.839Z" fill="url(#paint14_linear_107_426)"/>
<path d="M30.7409 174.778C26.4682 200.558 31.6679 238.496 33.4215 245.921C33.5288 246.375 33.8952 246.724 34.3567 246.8C35.1399 246.93 36.4279 247.036 37.6983 246.667C38.1354 246.539 38.4435 246.146 38.4611 245.69C38.6959 239.687 38.2724 202.834 42.2533 188.269C42.4556 187.531 42.9062 186.888 43.5292 186.444L51.2548 180.951L51.8466 172.074L30.7409 174.778Z" fill="url(#paint15_linear_107_426)"/>
<path d="M57.9638 125.93C45.1606 125.718 31.0341 129.292 31.0341 129.292C27.2174 151.557 30.3663 177.238 30.3663 177.238C40.2785 179.837 51.4584 175.649 51.4584 175.649C53.1061 166.343 60.7924 140.152 60.7924 140.152C67.048 139.375 72.2003 137.57 76.4445 135.185C73.2074 131.433 71.6818 126.659 71.0194 123.837C66.4929 125.243 61.9121 125.995 57.9638 125.93Z" fill="url(#paint16_linear_107_426)"/>
<path d="M95.7802 107.074C94.522 105.555 92.9313 106.273 92.9313 106.273C91.0474 114.232 81.1692 120.683 71.0194 123.837C71.6818 126.659 73.2087 131.433 76.4445 135.185C93.2883 125.716 95.7802 107.074 95.7802 107.074Z" fill="url(#paint17_linear_107_426)"/>
<path d="M35.9447 141.687L31.0341 129.29C31.0341 129.29 19.0752 137.414 17.1085 147.716C19.3683 147.883 23.4795 148.471 27.5038 150.503C28.3888 145.639 35.9447 141.687 35.9447 141.687Z" fill="url(#paint18_linear_107_426)"/>
<path d="M44.995 115.537L40.9219 127.317C40.854 127.513 40.9341 127.728 41.1159 127.829C42.2262 128.442 46.2274 130.217 51.0485 127.161C51.5507 126.842 51.8927 126.324 51.9687 125.733L53.288 115.539H44.995V115.537Z" fill="url(#paint19_linear_107_426)"/>
<path d="M27.5052 150.503C27.5052 150.503 23.3248 169.357 27.1116 179.957C22.4697 182.109 23.3275 181.703 23.3275 181.703C23.3275 181.703 14.1455 154.877 17.1098 147.716C22.9542 147.096 25.8534 148.666 27.5052 150.503Z" fill="url(#paint20_linear_107_426)"/>
<path d="M27.1115 179.957C27.1115 179.957 29.5031 183.052 29.3117 184.285C29.1203 185.517 29.0742 186.02 29.0742 186.02C29.0742 186.02 27.8716 185.198 27.9476 184.148C28.1146 187.481 29.2303 191.271 28.2164 191.088C27.2025 190.905 21.9498 186.065 23.1374 180.905C25.833 179.034 26.5876 179.237 27.1115 179.957Z" fill="url(#paint21_linear_107_426)"/>
<path d="M51.8927 103.598C52.0257 103.784 56.1898 118.296 56.1898 118.296L47.8521 120.498L41.8624 107.329C41.8624 107.329 49.6586 100.496 51.8927 103.598Z" fill="url(#paint22_linear_107_426)"/>
<path d="M45.1728 108.304C44.9679 108.629 44.9258 109.028 45.0575 109.389L47.6309 116.464C47.6702 116.571 47.7218 116.672 47.7897 116.764C48.1602 117.273 49.4713 118.798 50.9928 117.362C52.289 116.138 53.497 115.032 54.6263 114.697C55.2859 114.502 55.9754 114.894 56.1613 115.555C56.5468 116.917 57.2689 119.685 57.5661 122.232C57.6408 122.871 57.2051 123.456 56.5739 123.58C54.9086 123.905 51.6389 124.444 48.8592 124.293C48.4031 124.269 47.9987 123.995 47.8046 123.582C46.9495 121.761 44.5308 116.665 43.6269 115.332C42.7867 114.093 40.7902 114.112 39.8754 114.192C39.5279 114.223 39.1872 114.109 38.928 113.876C38.1516 113.177 36.8745 111.562 38.7095 109.604C39.1655 109.116 39.1316 108.344 38.6538 107.877C37.7988 107.043 36.9695 105.625 38.3634 103.862C39.7749 102.076 41.6426 102.253 42.8614 102.648C43.4002 102.823 44.0178 102.642 44.3286 102.169C44.467 101.959 44.691 101.8 45.052 101.797C45.732 101.792 46.2777 101.276 46.2763 100.596C46.2736 99.4306 46.7228 98.0042 48.7072 97.365C52.3474 96.1951 54.6575 99.7006 54.9072 102.329C55.1569 104.96 51.1381 106.003 48.7683 105.848C47.0269 105.733 45.7361 107.406 45.1728 108.304Z" fill="url(#paint23_linear_107_426)"/>
<path d="M44.6014 117.937C44.6014 117.937 43.9689 113.374 42.066 113.168C40.1631 112.961 38.3281 114.541 40.2418 117.087C42.6225 120.255 44.6014 117.937 44.6014 117.937Z" fill="url(#paint24_linear_107_426)"/>
<path d="M327.69 380H221.959V230.926C221.959 227.895 224.416 225.44 227.446 225.44H322.202C325.233 225.44 327.688 227.896 327.688 230.926V380H327.69Z" fill="#7D97F4"/>
<path d="M296.521 380H190.791V230.926C190.791 227.895 193.248 225.44 196.277 225.44H291.034C294.065 225.44 296.52 227.896 296.52 230.926V380H296.521Z" fill="#91B3FA"/>
<path d="M199.518 269.392C199.137 269.392 198.827 269.083 198.827 268.702V250.384C198.827 240.735 206.679 232.884 216.329 232.884H244.131C244.512 232.884 244.821 233.193 244.821 233.575C244.821 233.956 244.512 234.265 244.131 234.265H216.329C207.441 234.265 200.209 241.496 200.209 250.384V268.702C200.209 269.083 199.9 269.392 199.518 269.392Z" fill="#BDD0FB"/>
<path d="M199.518 288.814C199.137 288.814 198.827 288.505 198.827 288.124V280.661C198.827 280.279 199.137 279.97 199.518 279.97C199.9 279.97 200.209 280.279 200.209 280.661V288.124C200.209 288.505 199.9 288.814 199.518 288.814Z" fill="#BDD0FB"/>
<path d="M378 380H272.27V308.676C272.27 305.646 274.726 303.191 277.756 303.191H372.513C375.543 303.191 377.999 305.647 377.999 308.676V380H378Z" fill="url(#paint25_linear_107_426)"/>
<path d="M346.83 380H241.1V308.676C241.1 305.646 243.556 303.191 246.586 303.191H341.343C344.373 303.191 346.829 305.647 346.829 308.676V380H346.83Z" fill="url(#paint26_linear_107_426)"/>
<path d="M248.616 345.877C248.235 345.877 247.925 345.567 247.925 345.186V326.869C247.925 317.219 255.777 309.368 265.427 309.368H293.229C293.61 309.368 293.919 309.678 293.919 310.059C293.919 310.441 293.61 310.75 293.229 310.75H265.427C256.539 310.75 249.307 317.981 249.307 326.869V345.186C249.308 345.569 248.999 345.877 248.616 345.877Z" fill="#7D97F4"/>
<path d="M248.616 365.3C248.235 365.3 247.925 364.991 247.925 364.61V357.147C247.925 356.765 248.235 356.456 248.616 356.456C248.998 356.456 249.307 356.765 249.307 357.147V364.61C249.309 364.991 248.999 365.3 248.616 365.3Z" fill="#7D97F4"/>
<path d="M328.132 238.384C328.132 238.384 328.136 239.713 332.425 239.629C334.817 239.583 339.252 239.06 341.758 242.802C343.051 244.733 345.408 245.615 347.619 244.895C353.125 243.102 362.34 241.787 368.071 250.025C372.447 256.312 370.289 260.621 367.113 263.335C364.78 265.329 364.317 268.81 366.209 271.226C368.024 273.542 368.757 276.91 365.479 281.516C358.135 291.838 339.176 279.088 339.176 279.088L321.475 249.064L328.132 238.384Z" fill="url(#paint27_linear_107_426)"/>
<path d="M363.679 260.048C363.624 260.048 363.567 260.035 363.511 260.006C363.483 259.991 363.472 259.956 363.487 259.929C363.502 259.901 363.535 259.89 363.564 259.905C363.797 260.027 364.053 259.728 364.165 259.534C365.715 256.869 365.38 253.145 363.352 250.479C362.137 248.883 360.499 247.804 358.74 247.442C357.49 247.184 356.205 247.287 354.994 247.416C352.943 247.633 350.88 247.954 348.863 248.369C348.699 248.403 348.534 248.437 348.369 248.472C347.183 248.72 345.956 248.978 344.725 248.982C344.717 248.982 344.709 248.982 344.702 248.982C343.123 248.982 341.74 248.524 340.805 247.689C340.222 247.169 339.79 246.493 339.372 245.839C338.87 245.055 338.353 244.243 337.578 243.726C337.55 243.708 337.544 243.673 337.561 243.646C337.579 243.619 337.614 243.613 337.641 243.63C338.435 244.16 338.961 244.981 339.47 245.775C339.884 246.423 340.311 247.092 340.883 247.601C341.796 248.416 343.152 248.864 344.702 248.864C344.71 248.864 344.717 248.864 344.725 248.864C345.944 248.862 347.165 248.605 348.346 248.357C348.51 248.321 348.676 248.287 348.84 248.254C350.861 247.838 352.928 247.517 354.983 247.299C356.201 247.171 357.497 247.066 358.765 247.328C360.551 247.696 362.213 248.79 363.446 250.409C365.502 253.111 365.839 256.886 364.267 259.592C364.131 259.82 363.911 260.048 363.679 260.048Z" fill="white"/>
<path d="M363.701 258.761C363.697 258.761 363.694 258.761 363.69 258.759C363.659 258.754 363.639 258.723 363.644 258.691C363.977 256.927 363.841 255.285 363.252 253.941C362.565 252.375 361.213 251.224 359.724 250.938C359.693 250.932 359.673 250.901 359.678 250.87C359.685 250.839 359.715 250.817 359.746 250.824C361.272 251.117 362.655 252.294 363.356 253.894C363.955 255.259 364.093 256.924 363.757 258.712C363.753 258.742 363.728 258.761 363.701 258.761Z" fill="white"/>
<path d="M279.589 332.711C279.633 332.695 303.148 291.518 306.325 287.643C306.86 286.992 307.686 286.659 308.524 286.76L315.088 287.541L322.798 304.221L309.953 296.74C311.223 305.53 294.722 318.593 289.063 323.36C288.489 323.844 288.442 324.711 288.96 325.254L291.22 327.619C287.51 331.378 283.23 333.793 278.399 334.91L279.589 332.711Z" fill="url(#paint28_linear_107_426)"/>
<path d="M289.911 326.342C289.911 326.342 291.353 326.808 291.842 328.092C292.075 328.706 291.824 329.403 291.289 329.785C288.915 331.486 281.082 336.978 277.468 338.053C277.172 338.141 276.89 337.872 276.956 337.571C277.142 336.731 277.742 335.055 279.675 332.601L279.501 332.951C279.281 333.395 279.765 333.858 280.196 333.614C282.615 332.25 287.539 329.264 289.911 326.342Z" fill="url(#paint29_linear_107_426)"/>
<path d="M288.748 342.818C288.788 342.792 292.315 334.294 292.355 334.268C295.589 314.576 303.481 297.711 305.809 293.273C306.201 292.526 306.944 292.034 307.784 291.962L314.37 291.4L325.297 306.174L311.203 301.448C314.227 309.799 300.71 325.931 296.133 331.744C295.669 332.334 295.798 333.192 296.415 333.618L299.107 335.477C296.235 339.909 292.532 343.139 288.028 345.21L288.748 342.818Z" fill="url(#paint30_linear_107_426)"/>
<path d="M297.568 334.49C297.568 334.49 299.074 334.655 299.813 335.814C300.166 336.369 300.06 337.1 299.615 337.583C297.633 339.729 291.075 346.692 287.753 348.477C287.481 348.624 287.151 348.417 287.155 348.109C287.167 347.25 287.414 345.486 288.811 342.692L288.712 343.07C288.587 343.549 289.154 343.904 289.526 343.578C291.618 341.754 295.835 337.832 297.568 334.49Z" fill="url(#paint31_linear_107_426)"/>
<path d="M345.197 288.288C345.197 288.288 351.156 297.149 351.644 301.19C352.133 305.232 349.997 306.63 343.761 307.145C325.205 308.679 316.057 303.119 316.057 303.119C314.788 295.026 313.884 292.967 303.282 288.566C303.282 288.566 316.692 289.63 319.39 288.584C322.09 287.536 345.197 288.288 345.197 288.288Z" fill="url(#paint32_linear_107_426)"/>
<path d="M329.085 287.115C329.085 287.115 322.147 280.51 318.732 276.135C316.886 273.769 316.306 270.656 317.16 267.78C318.72 262.528 321.49 257.087 321.742 256.24C322.129 254.943 329.909 254.997 329.909 254.997C329.909 254.997 345.216 264.931 351.232 281.759L344.477 283.861C344.477 283.861 340.479 277.157 336.531 272.894C336.531 272.894 343.365 281.92 343.605 285.616L329.085 287.115Z" fill="url(#paint33_linear_107_426)"/>
<path d="M320.803 248.988C320.884 249.258 322.915 255.988 323.074 256.128C323.233 256.267 327.527 256.498 329.548 255.117L325.423 245.991L320.803 248.988Z" fill="url(#paint34_linear_107_426)"/>
<path d="M315.867 289.721L321.08 284.05L327.101 285.67C327.101 285.67 334.119 286.757 338.137 285.67C342.154 284.583 342.154 284.583 342.154 284.583L351.233 281.757L352.658 285.787C353.021 286.81 352.657 287.946 351.772 288.574C350.986 289.132 350.066 289.746 349.48 290.002C348.284 290.525 321.939 290.168 321.939 290.168L315.867 289.721Z" fill="url(#paint35_linear_107_426)"/>
<path d="M333.123 291.966C333.105 291.967 333.086 291.967 333.067 291.967L309.09 291.941C308.497 291.941 308.017 291.46 308.017 290.866C308.017 290.273 308.501 289.783 309.092 289.794L333.07 289.82C333.663 289.82 334.142 290.302 334.142 290.895C334.141 291.47 333.69 291.939 333.123 291.966Z" fill="url(#paint36_linear_107_426)"/>
<path d="M287.535 270.197H307.504C308.977 270.197 310.318 271.047 310.946 272.379L320.179 291.952H295.362C294.413 291.952 293.56 291.373 293.211 290.489L286.051 272.378C285.637 271.332 286.408 270.197 287.535 270.197Z" fill="url(#paint37_linear_107_426)"/>
<path d="M301.603 280.233C302.036 281.578 301.716 282.884 300.889 283.15C300.063 283.416 299.04 282.542 298.608 281.198C298.175 279.853 298.495 278.548 299.321 278.282C300.148 278.016 301.17 278.89 301.603 280.233Z" fill="url(#paint38_linear_107_426)"/>
<path d="M316.966 239.851C316.966 239.851 315.143 243.118 316.358 248.484C317.573 253.852 320.366 254.589 322.293 253.485C324.221 252.382 326.783 250.323 327.546 245.649C328.31 240.975 319.438 235.737 316.966 239.851Z" fill="url(#paint39_linear_107_426)"/>
<path d="M324.069 244.991C324.069 244.991 321.638 237.649 316.492 241.552L315.947 243.324C315.947 243.324 311.594 241.597 313.475 237.685C315.356 233.773 319.926 232.23 324.454 235.343C328.982 238.458 331.363 241.05 330.733 244.719C330.103 248.389 327.461 246.846 327.461 246.846C327.461 246.846 327.201 244.075 325.947 243.461C324.694 242.848 324.515 244.907 324.515 244.907L324.069 244.991Z" fill="url(#paint40_linear_107_426)"/>
<path d="M325.14 245.185C325.14 245.185 323.868 241.418 326.17 241.518C328.472 241.618 327.178 245.128 326.589 246.397L325.14 245.185Z" fill="url(#paint41_linear_107_426)"/>
<path d="M312.919 191.484C313.658 192.579 316.6 217.37 317.06 226.526C317.091 227.145 316.596 227.662 315.975 227.662C315.44 227.662 314.986 227.272 314.903 226.744L309.523 192.274L312.919 191.484Z" fill="#91B3FA"/>
<path d="M289.271 191.484C288.531 192.579 285.59 217.37 285.13 226.526C285.099 227.145 285.594 227.662 286.214 227.662C286.749 227.662 287.204 227.272 287.286 226.744L292.667 192.274L289.271 191.484Z" fill="#91B3FA"/>
<path d="M317.368 189.549L317.371 189.819C317.388 191.764 315.712 193.36 313.615 193.395L288.75 193.818C286.681 193.854 284.957 192.36 284.857 190.445L284.843 190.198C284.739 188.201 286.434 186.518 288.591 186.48L313.467 186.034C315.597 185.996 317.35 187.576 317.368 189.549Z" fill="#7D97F4"/>
<path d="M268.993 225.625C273.414 225.625 275.37 225.246 276.244 224.9C276.074 225.626 275.427 226.199 274.611 226.199H258.974C258.447 226.199 258.115 225.695 258.241 225.238C260.023 225.382 263.808 225.625 268.993 225.625Z" fill="#7D97F4"/>
<path d="M258.241 225.239C258.266 225.147 258.303 225.057 258.368 224.973C259.56 223.453 261.953 221.065 265.208 221.111C269.976 221.177 271.638 221.696 275.344 221.139L276.218 224.037C276.307 224.333 276.309 224.627 276.245 224.901C275.371 225.247 273.415 225.626 268.994 225.626C263.808 225.625 260.023 225.382 258.241 225.239Z" fill="url(#paint42_linear_107_426)"/>
<path d="M274.27 218.016L275.344 221.666C275.344 221.666 272.967 222.747 270.876 221.879L270.466 218.717L274.27 218.016Z" fill="url(#paint43_linear_107_426)"/>
<path d="M241.86 223.327C245.306 226.096 247.066 227.027 247.964 227.305C247.379 227.762 246.518 227.801 245.88 227.29L233.69 217.497C233.281 217.167 233.335 216.568 233.718 216.293C235.018 217.52 237.818 220.079 241.86 223.327Z" fill="#7D97F4"/>
<path d="M233.717 216.293C233.795 216.237 233.88 216.191 233.983 216.167C235.861 215.732 239.214 215.378 241.723 217.453C245.398 220.492 246.371 221.934 249.606 223.824L248.481 226.619C248.365 226.904 248.183 227.134 247.962 227.306C247.065 227.026 245.305 226.095 241.858 223.328C237.818 220.079 235.018 217.52 233.717 216.293Z" fill="url(#paint44_linear_107_426)"/>
<path d="M297.224 176.442C297.224 176.442 270.76 178.602 265.331 181.158C259.902 183.713 269.761 219.528 269.761 219.528C269.761 219.528 271.239 220.239 274.528 219.217C274.528 219.217 271.155 192.787 273.665 187.056L302.318 182.37L297.224 176.442Z" fill="url(#paint45_linear_107_426)"/>
<path d="M252.236 218.793C251.991 219.017 249.607 223.824 249.607 223.824C249.607 223.824 246.954 223.25 246.412 221.571L248.8 217.232L252.236 218.793Z" fill="url(#paint46_linear_107_426)"/>
<path d="M313.163 176.22C313.163 176.22 314.025 178.296 313.989 181.053C313.941 184.867 310.875 187.961 307.066 188.151L275.781 189.577C275.12 189.607 274.561 190.065 274.395 190.705C273.659 193.548 270.067 202.28 252.501 219.703C252.034 220.168 251.305 220.246 250.749 219.895L248.248 218.315C247.986 218.149 247.902 217.805 248.058 217.537L266.274 186.434C267.231 184.856 268.769 183.715 270.558 183.259L297.222 176.443L313.163 176.22Z" fill="url(#paint47_linear_107_426)"/>
<path d="M282.332 127.636C282.332 127.636 285.684 133.561 289.101 136.432L282.038 140.371C282.038 140.371 280.446 134.099 276.811 132.263L282.332 127.636Z" fill="url(#paint48_linear_107_426)"/>
<path d="M313.732 176.442C313.732 176.442 305.285 178.499 297.224 176.442C297.224 176.442 285.944 161.28 281.58 157.153C281.58 157.153 274.619 168.136 259.126 169.693L258.261 167.761C258.261 167.761 270.596 162.076 274.394 153.339C278.191 144.603 279.717 140.876 283.171 138.598C285.322 137.178 286.611 136.209 287.277 135.679C287.642 135.388 288.144 135.356 288.542 135.598C292.208 137.834 309.459 149.648 313.732 176.442Z" fill="url(#paint49_linear_107_426)"/>
<path d="M260.057 166.753L258.313 166.289L253.018 165.063C252.38 164.915 251.711 165.028 251.157 165.377L246.605 168.24L259.179 168.219L260.057 166.753Z" fill="url(#paint50_linear_107_426)"/>
<path d="M277.012 118.751C277.012 118.751 273.754 124.165 273.19 127.157C272.625 130.15 271.717 132.02 275.123 133.085C278.528 134.152 281.693 132.801 283.68 130.008C283.68 130.008 286.783 125.71 286.473 123.741C286.163 121.775 277.012 118.751 277.012 118.751Z" fill="url(#paint51_linear_107_426)"/>
<path d="M282.773 127.693L282.332 127.635C282.332 127.635 284.638 124.15 283.129 123.286C281.62 122.422 275.47 120.301 274.403 117.88C273.373 115.545 274.913 112.907 276.77 112.357C276.888 112.322 277.012 112.393 277.054 112.507L277.162 112.801C277.237 113.002 277.519 113.01 277.605 112.813C277.686 112.626 277.954 112.619 278.038 112.804C278.366 113.53 279.353 114.769 282.311 115.727C286.507 117.087 289.121 119.203 288.8 122.183C288.779 122.372 288.967 122.502 289.14 122.426C289.484 122.274 290.004 122.251 290.608 122.91C291.658 124.059 290.836 126.571 287.968 128.349C287.832 128.433 287.808 128.625 287.928 128.73C288.357 129.098 288.961 129.916 287.02 130.646C285.035 131.393 283.952 131.14 283.553 130.98C283.445 130.937 283.383 130.825 283.406 130.711L283.916 128.099C283.942 127.963 283.85 127.834 283.713 127.817L282.773 127.693Z" fill="url(#paint52_linear_107_426)"/>
<path d="M282.593 128.231C282.593 128.231 284.03 124.687 285.54 125.933C287.049 127.179 284.144 129.931 282.803 129.894L282.593 128.231Z" fill="url(#paint53_linear_107_426)"/>
<path d="M264.914 170.706C264.894 170.708 264.874 170.708 264.852 170.708L237.991 170.681C237.328 170.681 236.79 170.142 236.79 169.48C236.792 168.816 237.332 168.269 237.994 168.281L264.855 168.308C265.518 168.308 266.056 168.847 266.056 169.509C266.055 170.151 265.55 170.675 264.914 170.706Z" fill="url(#paint54_linear_107_426)"/>
<path d="M227.589 144.404C227.599 144.421 227.608 144.44 227.617 144.459L238.919 168.824C239.198 169.427 238.938 170.14 238.336 170.419C237.735 170.698 237.01 170.438 236.741 169.832L225.44 145.468C225.16 144.865 225.421 144.151 226.022 143.873C226.604 143.604 227.292 143.842 227.589 144.404Z" fill="url(#paint55_linear_107_426)"/>
<path d="M252.972 172C253.089 172.485 264.297 214.516 267.139 225.172C267.466 226.401 266.552 227.606 265.295 227.606C264.418 227.606 263.654 227.002 263.442 226.141L251 175.703L252.972 172Z" fill="#7D97F4"/>
<path d="M246.817 172.055C246.7 172.541 235.491 214.572 232.649 225.228C232.322 226.456 233.237 227.662 234.494 227.662C235.371 227.662 236.135 227.058 236.347 226.197L248.789 175.759L246.817 172.055Z" fill="#7D97F4"/>
<path d="M246.35 170.681H253.33V176.286C253.33 177.092 252.684 177.744 251.889 177.744H250.932V190.335C250.932 190.944 250.443 191.439 249.841 191.439C249.238 191.439 248.749 190.945 248.749 190.335V177.744H248.263C247.207 177.744 246.351 176.877 246.351 175.809V170.681H246.35Z" fill="#7D97F4"/>
<path d="M270.493 169.334H231.516C230.972 169.334 230.495 169.708 230.36 170.241L229.815 172.374C229.62 173.142 230.195 173.89 230.979 173.885L270.972 173.653C271.747 173.649 272.313 172.909 272.123 172.149L271.649 170.248C271.518 169.71 271.04 169.334 270.493 169.334Z" fill="#7D97F4"/>
<defs>
<linearGradient id="paint0_linear_107_426" x1="422.691" y1="485.291" x2="89.5837" y2="71.552" gradientUnits="userSpaceOnUse">
<stop stop-color="#DAE3FE"/>
<stop offset="1" stop-color="#E9EFFD"/>
</linearGradient>
<linearGradient id="paint1_linear_107_426" x1="366.152" y1="105.773" x2="270.544" y2="197.604" gradientUnits="userSpaceOnUse">
<stop stop-color="#FF928E"/>
<stop offset="1" stop-color="#FE7062"/>
</linearGradient>
<linearGradient id="paint2_linear_107_426" x1="110.829" y1="327.887" x2="274.501" y2="143.383" gradientUnits="userSpaceOnUse">
<stop stop-color="#FF928E"/>
<stop offset="1" stop-color="#FE7062"/>
</linearGradient>
<linearGradient id="paint3_linear_107_426" x1="87.2333" y1="77.4512" x2="226.798" y2="77.4512" gradientUnits="userSpaceOnUse">
<stop stop-color="#4F52FF"/>
<stop offset="1" stop-color="#4042E2"/>
</linearGradient>
<linearGradient id="paint4_linear_107_426" x1="151.119" y1="114.291" x2="149.386" y2="138.145" gradientUnits="userSpaceOnUse">
<stop stop-color="#4F52FF"/>
<stop offset="1" stop-color="#4042E2"/>
</linearGradient>
<linearGradient id="paint5_linear_107_426" x1="140.594" y1="133.147" x2="162.703" y2="17.7511" gradientUnits="userSpaceOnUse">
<stop stop-color="#FF928E"/>
<stop offset="1" stop-color="#FE7062"/>
</linearGradient>
<linearGradient id="paint6_linear_107_426" x1="172.631" y1="40.2105" x2="151.961" y2="130.926" gradientUnits="userSpaceOnUse">
<stop stop-color="#E1473D"/>
<stop offset="1" stop-color="#E9605A"/>
</linearGradient>
<linearGradient id="paint7_linear_107_426" x1="157.464" y1="36.7546" x2="136.794" y2="127.47" gradientUnits="userSpaceOnUse">
<stop stop-color="#E1473D"/>
<stop offset="1" stop-color="#E9605A"/>
</linearGradient>
<linearGradient id="paint8_linear_107_426" x1="99.2714" y1="94.3554" x2="90.7215" y2="118.786" gradientUnits="userSpaceOnUse">
<stop stop-color="#FEBBBA"/>
<stop offset="1" stop-color="#FF928E"/>
</linearGradient>
<linearGradient id="paint9_linear_107_426" x1="92.702" y1="109.964" x2="99.1424" y2="96.9708" gradientUnits="userSpaceOnUse">
<stop stop-color="#FEBBBA"/>
<stop offset="1" stop-color="#FF928E"/>
</linearGradient>
<linearGradient id="paint10_linear_107_426" x1="68.7861" y1="242.67" x2="14.2268" y2="302.022" gradientUnits="userSpaceOnUse">
<stop stop-color="#09005D"/>
<stop offset="1" stop-color="#1A0F91"/>
</linearGradient>
<linearGradient id="paint11_linear_107_426" x1="51.075" y1="247.078" x2="55.9217" y2="247.078" gradientUnits="userSpaceOnUse">
<stop stop-color="#FEBBBA"/>
<stop offset="1" stop-color="#FF928E"/>
</linearGradient>
<linearGradient id="paint12_linear_107_426" x1="73.0825" y1="175.556" x2="26.6585" y2="238.484" gradientUnits="userSpaceOnUse">
<stop stop-color="#09005D"/>
<stop offset="1" stop-color="#1A0F91"/>
</linearGradient>
<linearGradient id="paint13_linear_107_426" x1="56.5452" y1="231.418" x2="1.98594" y2="290.769" gradientUnits="userSpaceOnUse">
<stop stop-color="#09005D"/>
<stop offset="1" stop-color="#1A0F91"/>
</linearGradient>
<linearGradient id="paint14_linear_107_426" x1="33.6073" y1="246.829" x2="37.792" y2="246.829" gradientUnits="userSpaceOnUse">
<stop stop-color="#FEBBBA"/>
<stop offset="1" stop-color="#FF928E"/>
</linearGradient>
<linearGradient id="paint15_linear_107_426" x1="64.8076" y1="169.451" x2="18.3836" y2="232.379" gradientUnits="userSpaceOnUse">
<stop stop-color="#09005D"/>
<stop offset="1" stop-color="#1A0F91"/>
</linearGradient>
<linearGradient id="paint16_linear_107_426" x1="-623.832" y1="1368.56" x2="-592.277" y2="1310.98" gradientUnits="userSpaceOnUse">
<stop stop-color="#FF928E"/>
<stop offset="1" stop-color="#FE7062"/>
</linearGradient>
<linearGradient id="paint17_linear_107_426" x1="91.9624" y1="91.7974" x2="83.4124" y2="116.228" gradientUnits="userSpaceOnUse">
<stop stop-color="#FEBBBA"/>
<stop offset="1" stop-color="#FF928E"/>
</linearGradient>
<linearGradient id="paint18_linear_107_426" x1="-639.898" y1="1359.76" x2="-608.343" y2="1302.17" gradientUnits="userSpaceOnUse">
<stop stop-color="#FF928E"/>
<stop offset="1" stop-color="#FE7062"/>
</linearGradient>
<linearGradient id="paint19_linear_107_426" x1="40.898" y1="122.218" x2="53.287" y2="122.218" gradientUnits="userSpaceOnUse">
<stop stop-color="#FEBBBA"/>
<stop offset="1" stop-color="#FF928E"/>
</linearGradient>
<linearGradient id="paint20_linear_107_426" x1="30.5242" y1="213.302" x2="20.4541" y2="140.973" gradientUnits="userSpaceOnUse">
<stop stop-color="#FEBBBA"/>
<stop offset="1" stop-color="#FF928E"/>
</linearGradient>
<linearGradient id="paint21_linear_107_426" x1="29.3248" y1="206.345" x2="21.2888" y2="148.626" gradientUnits="userSpaceOnUse">
<stop stop-color="#FEBBBA"/>
<stop offset="1" stop-color="#FF928E"/>
</linearGradient>
<linearGradient id="paint22_linear_107_426" x1="49.1924" y1="105.665" x2="48.5236" y2="134.381" gradientUnits="userSpaceOnUse">
<stop stop-color="#FEBBBA"/>
<stop offset="1" stop-color="#FF928E"/>
</linearGradient>
<linearGradient id="paint23_linear_107_426" x1="41.6715" y1="117.86" x2="58.4626" y2="105.77" gradientUnits="userSpaceOnUse">
<stop stop-color="#09005D"/>
<stop offset="1" stop-color="#1A0F91"/>
</linearGradient>
<linearGradient id="paint24_linear_107_426" x1="39.2063" y1="135.213" x2="42.1527" y2="115.529" gradientUnits="userSpaceOnUse">
<stop stop-color="#FEBBBA"/>
<stop offset="1" stop-color="#FF928E"/>
</linearGradient>
<linearGradient id="paint25_linear_107_426" x1="428.765" y1="249.858" x2="322.926" y2="345.123" gradientUnits="userSpaceOnUse">
<stop stop-color="#4F52FF"/>
<stop offset="1" stop-color="#4042E2"/>
</linearGradient>
<linearGradient id="paint26_linear_107_426" x1="343.711" y1="267.556" x2="184.58" y2="510.601" gradientUnits="userSpaceOnUse">
<stop stop-color="#4F52FF"/>
<stop offset="1" stop-color="#4042E2"/>
</linearGradient>
<linearGradient id="paint27_linear_107_426" x1="312.916" y1="242.638" x2="367.005" y2="270.58" gradientUnits="userSpaceOnUse">
<stop stop-color="#09005D"/>
<stop offset="1" stop-color="#1A0F91"/>
</linearGradient>
<linearGradient id="paint28_linear_107_426" x1="273.953" y1="298.218" x2="311.024" y2="319.38" gradientUnits="userSpaceOnUse">
<stop stop-color="#FEBBBA"/>
<stop offset="1" stop-color="#FF928E"/>
</linearGradient>
<linearGradient id="paint29_linear_107_426" x1="278.799" y1="319.374" x2="295.495" y2="359.787" gradientUnits="userSpaceOnUse">
<stop stop-color="#09005D"/>
<stop offset="1" stop-color="#1A0F91"/>
</linearGradient>
<linearGradient id="paint30_linear_107_426" x1="277.539" y1="303.495" x2="150.701" y2="224.085" gradientUnits="userSpaceOnUse">
<stop stop-color="#FEBBBA"/>
<stop offset="1" stop-color="#FF928E"/>
</linearGradient>
<linearGradient id="paint31_linear_107_426" x1="285.275" y1="329.917" x2="309.804" y2="366.112" gradientUnits="userSpaceOnUse">
<stop stop-color="#09005D"/>
<stop offset="1" stop-color="#1A0F91"/>
</linearGradient>
<linearGradient id="paint32_linear_107_426" x1="317.036" y1="275.12" x2="362.692" y2="357.66" gradientUnits="userSpaceOnUse">
<stop stop-color="#09005D"/>
<stop offset="1" stop-color="#1A0F91"/>
</linearGradient>
<linearGradient id="paint33_linear_107_426" x1="316.312" y1="257.812" x2="403.699" y2="342.114" gradientUnits="userSpaceOnUse">
<stop stop-color="#FF928E"/>
<stop offset="1" stop-color="#FE7062"/>
</linearGradient>
<linearGradient id="paint34_linear_107_426" x1="327.258" y1="265.418" x2="324.739" y2="249.257" gradientUnits="userSpaceOnUse">
<stop stop-color="#FEBBBA"/>
<stop offset="1" stop-color="#FF928E"/>
</linearGradient>
<linearGradient id="paint35_linear_107_426" x1="338.884" y1="286.022" x2="375.814" y2="286.022" gradientUnits="userSpaceOnUse">
<stop stop-color="#FEBBBA"/>
<stop offset="1" stop-color="#FF928E"/>
</linearGradient>
<linearGradient id="paint36_linear_107_426" x1="337.191" y1="285.596" x2="318.157" y2="291.839" gradientUnits="userSpaceOnUse">
<stop stop-color="#09005D"/>
<stop offset="1" stop-color="#1A0F91"/>
</linearGradient>
<linearGradient id="paint37_linear_107_426" x1="311.043" y1="273.117" x2="297.337" y2="287.605" gradientUnits="userSpaceOnUse">
<stop stop-color="#09005D"/>
<stop offset="1" stop-color="#1A0F91"/>
</linearGradient>
<linearGradient id="paint38_linear_107_426" x1="302.756" y1="276.724" x2="296.537" y2="286.09" gradientUnits="userSpaceOnUse">
<stop stop-color="#4F52FF"/>
<stop offset="1" stop-color="#4042E2"/>
</linearGradient>
<linearGradient id="paint39_linear_107_426" x1="323.75" y1="258.487" x2="317.921" y2="220.038" gradientUnits="userSpaceOnUse">
<stop stop-color="#FEBBBA"/>
<stop offset="1" stop-color="#FF928E"/>
</linearGradient>
<linearGradient id="paint40_linear_107_426" x1="313.255" y1="235.704" x2="369.753" y2="264.891" gradientUnits="userSpaceOnUse">
<stop stop-color="#09005D"/>
<stop offset="1" stop-color="#1A0F91"/>
</linearGradient>
<linearGradient id="paint41_linear_107_426" x1="328.349" y1="257.79" x2="322.52" y2="219.342" gradientUnits="userSpaceOnUse">
<stop stop-color="#FEBBBA"/>
<stop offset="1" stop-color="#FF928E"/>
</linearGradient>
<linearGradient id="paint42_linear_107_426" x1="258.24" y1="223.367" x2="276.289" y2="223.367" gradientUnits="userSpaceOnUse">
<stop stop-color="#09005D"/>
<stop offset="1" stop-color="#1A0F91"/>
</linearGradient>
<linearGradient id="paint43_linear_107_426" x1="275.343" y1="220.117" x2="270.465" y2="220.117" gradientUnits="userSpaceOnUse">
<stop stop-color="#FEBBBA"/>
<stop offset="1" stop-color="#FF928E"/>
</linearGradient>
<linearGradient id="paint44_linear_107_426" x1="233.718" y1="221.57" x2="249.607" y2="221.57" gradientUnits="userSpaceOnUse">
<stop stop-color="#09005D"/>
<stop offset="1" stop-color="#1A0F91"/>
</linearGradient>
<linearGradient id="paint45_linear_107_426" x1="302.319" y1="198.106" x2="263.7" y2="198.106" gradientUnits="userSpaceOnUse">
<stop stop-color="#09005D"/>
<stop offset="1" stop-color="#1A0F91"/>
</linearGradient>
<linearGradient id="paint46_linear_107_426" x1="252.236" y1="220.527" x2="246.412" y2="220.527" gradientUnits="userSpaceOnUse">
<stop stop-color="#FEBBBA"/>
<stop offset="1" stop-color="#FF928E"/>
</linearGradient>
<linearGradient id="paint47_linear_107_426" x1="267.239" y1="182.017" x2="309.632" y2="230.087" gradientUnits="userSpaceOnUse">
<stop stop-color="#09005D"/>
<stop offset="1" stop-color="#1A0F91"/>
</linearGradient>
<linearGradient id="paint48_linear_107_426" x1="284.588" y1="138.462" x2="281.717" y2="131.221" gradientUnits="userSpaceOnUse">
<stop stop-color="#FEBBBA"/>
<stop offset="1" stop-color="#FF928E"/>
</linearGradient>
<linearGradient id="paint49_linear_107_426" x1="278.83" y1="184.266" x2="298.638" y2="150.635" gradientUnits="userSpaceOnUse">
<stop stop-color="#FF928E"/>
<stop offset="1" stop-color="#FE7062"/>
</linearGradient>
<linearGradient id="paint50_linear_107_426" x1="260.056" y1="166.62" x2="246.603" y2="166.62" gradientUnits="userSpaceOnUse">
<stop stop-color="#FEBBBA"/>
<stop offset="1" stop-color="#FF928E"/>
</linearGradient>
<linearGradient id="paint51_linear_107_426" x1="275.821" y1="123.737" x2="288.673" y2="136.557" gradientUnits="userSpaceOnUse">
<stop stop-color="#FEBBBA"/>
<stop offset="1" stop-color="#FF928E"/>
</linearGradient>
<linearGradient id="paint52_linear_107_426" x1="287" y1="116.428" x2="271.864" y2="131.387" gradientUnits="userSpaceOnUse">
<stop stop-color="#09005D"/>
<stop offset="1" stop-color="#1A0F91"/>
</linearGradient>
<linearGradient id="paint53_linear_107_426" x1="277.899" y1="121.654" x2="290.751" y2="134.474" gradientUnits="userSpaceOnUse">
<stop stop-color="#FEBBBA"/>
<stop offset="1" stop-color="#FF928E"/>
</linearGradient>
<linearGradient id="paint54_linear_107_426" x1="2480.33" y1="-3069.14" x2="2554.9" y2="-3177.9" gradientUnits="userSpaceOnUse">
<stop stop-color="#09005D"/>
<stop offset="1" stop-color="#1A0F91"/>
</linearGradient>
<linearGradient id="paint55_linear_107_426" x1="-786.518" y1="-15.0777" x2="-916.587" y2="-36.8308" gradientUnits="userSpaceOnUse">
<stop stop-color="#09005D"/>
<stop offset="1" stop-color="#1A0F91"/>
</linearGradient>
</defs>
</svg>
